<?xml version="1.0" encoding="UTF-8" standalone="no"?>
<!-- Generator: Adobe Illustrator 26.5.3, SVG Export Plug-In . SVG Version: 6.00 Build 0)  -->

<svg
   version="1.1"
   id="Restaurants"
   x="0px"
   y="0px"
   viewBox="0 0 22 22"
   xml:space="preserve"
   sodipodi:docname="filter_restaurants.svg"
   width="22"
   height="22"
   inkscape:version="1.2.2 (b0a8486, 2022-12-01)"
   xmlns:inkscape="http://www.inkscape.org/namespaces/inkscape"
   xmlns:sodipodi="http://sodipodi.sourceforge.net/DTD/sodipodi-0.dtd"
   xmlns="http://www.w3.org/2000/svg"
   xmlns:svg="http://www.w3.org/2000/svg"><defs
   id="defs3708" /><sodipodi:namedview
   id="namedview3706"
   pagecolor="#ffffff"
   bordercolor="#666666"
   borderopacity="1.0"
   inkscape:showpageshadow="2"
   inkscape:pageopacity="0.0"
   inkscape:pagecheckerboard="0"
   inkscape:deskcolor="#d1d1d1"
   showgrid="false"
   showguides="true"
   inkscape:zoom="13.882353"
   inkscape:cx="6.5190678"
   inkscape:cy="8.5360169"
   inkscape:window-width="2560"
   inkscape:window-height="1333"
   inkscape:window-x="0"
   inkscape:window-y="25"
   inkscape:window-maximized="1"
   inkscape:current-layer="Restaurants"><sodipodi:guide
     position="11.165254,33.309322"
     orientation="1,0"
     id="guide4553"
     inkscape:locked="false" /></sodipodi:namedview>
<style
   type="text/css"
   id="style3681">
	.st0{fill:#666666;}
</style>
<g
   id="g3703"
   transform="matrix(0.8499983,0,0,0.8499983,2.0818388,3.7975318)">
	<g
   id="g3685">
		<path
   class="st0"
   d="m 20.8,8.6 c 0,0 0,-5.5 0,-7.3 0,-0.2 0,-0.4 -0.1,-0.6 -0.1,-0.2 -0.3,-0.4 -0.6,-0.1 -1,1.3 -0.8,5.9 -0.8,6.5 0.1,0.6 0.6,1 0.6,1.3 0.1,1 -0.2,4 -0.2,5.2 0,0.6 0.1,1.8 0.2,2.3 0,0.1 0.1,0.3 0.3,0.3 h 0.3 c 0.1,0 0.3,-0.1 0.3,-0.3 0.1,-0.6 0.2,-1.8 0.2,-2.3 0,-1 -0.2,-4 -0.2,-5 z"
   id="path3683" />
	</g>
	<g
   id="g3689">
		<path
   class="st0"
   d="m 1.8,0.7 c 0,0 0,2.3 -0.1,3 0,0.1 0,0.1 -0.1,0.1 C 1.5,3.8 1.5,3.7 1.5,3.7 1.4,2.9 1.3,0.7 1.3,0.7 c 0,-0.1 -0.1,-0.1 -0.1,0 0,0 -0.1,2.3 -0.1,3 0,0.1 0,0.1 -0.1,0.1 v 0 c 0,0 0,-0.1 0,-0.2 -0.1,-0.8 -0.1,-3 -0.1,-3 0,-0.1 -0.1,-0.1 -0.1,0 0,0 -0.1,2.3 -0.2,3 0,0.1 0,0.1 -0.1,0.1 -0.1,0 0,0 0,-0.1 0,-0.8 -0.1,-3 -0.1,-3 0,-0.1 0,-0.1 -0.1,0 0,0.8 -0.4,3.1 -0.3,3.9 0.1,0.8 0.3,1 0.4,1.2 0.3,0.3 0.5,0.7 0.5,1.3 0,1 0.1,2.5 -0.1,4.6 -0.1,1.5 -0.3,3.6 -0.1,4.6 0,0.1 0.1,0.3 0.3,0.3 h 0.2 c 0.1,0 0.3,-0.1 0.3,-0.3 0.1,-0.9 0.1,-3 -0.1,-4.6 C 1.3,9.5 1.4,8 1.4,7 1.4,6.4 1.6,6 1.8,5.7 2,5.5 2.2,5.3 2.2,4.5 2.3,3.7 1.9,1.4 1.8,0.7 c 0,-0.2 0,-0.2 0,0 z"
   id="path3687" />
	</g>
	<g
   id="g3695">
		<g
   id="g3693">
			<path
   class="st0"
   d="m 10.6,3.9 c 2.5,0 4.5,2.1 4.5,4.6 0,2.6 -2,4.6 -4.5,4.6 -2.5,0 -4.5,-2 -4.5,-4.6 0,-2.5 2,-4.6 4.5,-4.6 m 0,-0.7 c -2.9,0 -5.2,2.3 -5.2,5.3 0,3 2.3,5.3 5.2,5.3 2.9,0 5.2,-2.3 5.2,-5.3 0,-3 -2.3,-5.3 -5.2,-5.3 z"
   id="path3691" />
		</g>
	</g>
	<g
   id="g3701">
		<g
   id="g3699">
			<path
   class="st0"
   d="m 10.6,1.6 c 3.8,0 6.9,3 6.9,6.9 0,3.8 -3.1,6.9 -6.9,6.9 C 6.8,15.4 3.7,12.3 3.7,8.5 3.8,4.6 6.8,1.6 10.6,1.6 m 0,-1.1 c -4.4,0 -7.9,3.5 -7.9,8 0,4.5 3.6,8 7.9,8 4.4,0 7.9,-3.6 7.9,-8 0.1,-4.5 -3.4,-8 -7.9,-8 z"
   id="path3697" />
		</g>
	</g>
</g>
</svg>
